# xmcd CD database file
# Copyright (C) 1993-1998 Ti Kan
# 
# Track frame offsets:
#     183
#     11108
#     34625
#     69288
#     105418
#     123213
#     168165
#     199785
#     215273
# 
# Disc length: 3502 seconds
# 
# Revision: 1
# Processed by: cddbd v1.4b41PL1 Copyright (c) Steve Scherf et al.
# Submitted via: DiscPlay 4.0.4
# 
DISCID=6b0dac09
DTITLE=Stevie Ray Vaughan And Double Trouble - Burnin' Strings
DYEAR=1900
DGENRE=
TTITLE0=Testify
TTITLE1=Say What!
TTITLE2=Aint' Gone 'n' Give Up Love
TTITLE3=Voodoo Chile
TTITLE4=Mary Had A Little Lamb
TTITLE5=Texas Flood
TTITLE6=Come On
TTITLE7=Pride And Joy
TTITLE8=Life Without You
EXTD=
EXTT0=
EXTT1=
EXTT2=
EXTT3=
EXTT4=
EXTT5=
EXTT6=
EXTT7=
EXTT8=
PLAYORDER=
